<svg xmlns="http://www.w3.org/2000/svg" viewBox="0 0 260.59 366.46"><defs><style>.cls-1{fill:#fff;}.cls-2{fill:#88d4db;}.cls-3{fill:#7e0814;}</style></defs><g id="Layer_3" data-name="Layer 3"><path class="cls-1" d="M799.76,326.5c0,47.22-27.93,85.5-62.38,85.5-23.23,0-43.49-17.4-54.23-43.21-15.91,30.83-43.16,49.31-69.41,43.86-34.33-7.13-54-52.51-43.8-101.36s46.2-82.68,80.54-75.55c17.46,3.63,31.12,17.15,39,36C700.91,253,718.13,241,737.38,241,771.83,241,799.76,279.28,799.76,326.5Z" transform="translate(-554 -194.54)"/><ellipse class="cls-2" cx="628.05" cy="323.08" rx="51.55" ry="37.99" transform="translate(-460.58 590.07) rotate(-68.03)"/><ellipse class="cls-2" cx="180" cy="134.46" rx="35" ry="45"/><ellipse cx="627.84" cy="322.89" rx="26.36" ry="20.79" transform="translate(-492.71 549.6) rotate(-63.85)"/><ellipse cx="181.5" cy="136.96" rx="18.5" ry="23.5"/><ellipse class="cls-1" cx="67.09" cy="104.32" rx="11.91" ry="14.86"/><circle class="cls-1" cx="193.61" cy="116.43" r="12.11"/><path class="cls-3" d="M572,234.79S636,162,671,223l-6,5S632,173.58,572,234.79Z" transform="translate(-554 -194.54)"/><path class="cls-3" d="M797.11,230.69s-64-72.79-99-11.79l6,5S737.11,169.48,797.11,230.69Z" transform="translate(-554 -194.54)"/><path class="cls-1" d="M769,545.57a74.15,74.15,0,0,1-9.28,4.43S731,556,699,529H671s-41.32,42.91-83.58,9.73h0A91.88,91.88,0,0,1,572,523s-8.51-40.83,9.43-63.41l0,0C591,447.54,608.1,440.7,638,448l25,15h36s54-44,83-8c0,0,1,1.66,2.35,4.57C791.52,474.49,810.18,522.19,769,545.57Z" transform="translate(-554 -194.54)"/><path class="cls-3" d="M554,374s18,40,50,46C604,420,567,427,554,374Z" transform="translate(-554 -194.54)"/><path class="cls-3" d="M814.59,374s-18,40-50,46C764.59,420,801.59,427,814.59,374Z" transform="translate(-554 -194.54)"/><path class="cls-3" d="M769,545.57c-.09-.93-5-47.39-109-43,0,0-67.16,21.89-72.58,36.16h0A91.88,91.88,0,0,1,572,523s-8.51-40.83,9.43-63.41l0,0s92.25,63.56,202.9,0C791.52,474.49,810.18,522.19,769,545.57Z" transform="translate(-554 -194.54)"/><path class="cls-3" d="M651,561s20-31,54,0C705,561,661,544,651,561Z" transform="translate(-554 -194.54)"/></g></svg>